<svg width="540" height="331" viewBox="0 0 540 331" fill="none" xmlns="http://www.w3.org/2000/svg">
<rect width="540" height="331" rx="10" fill="white"/>
<g clip-path="url(#clip0_37806_65)">
<rect x="40.5" y="28.4325" width="459" height="38.1055" rx="4.5" fill="white" stroke="#5E54A4"/>
<path d="M74.926 43.1605V52.9325H72.966V43.1605H74.926ZM80.0805 53.0585C79.4458 53.0585 78.8765 52.9465 78.3725 52.7225C77.8685 52.4892 77.4672 52.1765 77.1685 51.7845C76.8792 51.3925 76.7205 50.9585 76.6925 50.4825H78.6665C78.7038 50.7812 78.8485 51.0285 79.1005 51.2245C79.3618 51.4205 79.6838 51.5185 80.0665 51.5185C80.4398 51.5185 80.7292 51.4438 80.9345 51.2945C81.1492 51.1452 81.2565 50.9538 81.2565 50.7205C81.2565 50.4685 81.1258 50.2818 80.8645 50.1605C80.6125 50.0298 80.2065 49.8898 79.6465 49.7405C79.0678 49.6005 78.5918 49.4558 78.2185 49.3065C77.8545 49.1572 77.5372 48.9285 77.2665 48.6205C77.0052 48.3125 76.8745 47.8972 76.8745 47.3745C76.8745 46.9452 76.9958 46.5532 77.2385 46.1985C77.4905 45.8438 77.8452 45.5638 78.3025 45.3585C78.7692 45.1532 79.3152 45.0505 79.9405 45.0505C80.8645 45.0505 81.6018 45.2838 82.1525 45.7505C82.7032 46.2078 83.0065 46.8285 83.0625 47.6125H81.1865C81.1585 47.3045 81.0278 47.0618 80.7945 46.8845C80.5705 46.6978 80.2672 46.6045 79.8845 46.6045C79.5298 46.6045 79.2545 46.6698 79.0585 46.8005C78.8718 46.9312 78.7785 47.1132 78.7785 47.3465C78.7785 47.6078 78.9092 47.8085 79.1705 47.9485C79.4318 48.0792 79.8378 48.2145 80.3885 48.3545C80.9485 48.4945 81.4105 48.6392 81.7745 48.7885C82.1385 48.9378 82.4512 49.1712 82.7125 49.4885C82.9832 49.7965 83.1232 50.2072 83.1325 50.7205C83.1325 51.1685 83.0065 51.5698 82.7545 51.9245C82.5118 52.2792 82.1572 52.5592 81.6905 52.7645C81.2332 52.9605 80.6965 53.0585 80.0805 53.0585ZM94.6234 45.0645C95.5754 45.0645 96.3407 45.3585 96.9194 45.9465C97.5074 46.5252 97.8014 47.3372 97.8014 48.3825V52.9325H95.8414V48.6485C95.8414 48.0418 95.6874 47.5798 95.3794 47.2625C95.0714 46.9358 94.6514 46.7725 94.1194 46.7725C93.5874 46.7725 93.1627 46.9358 92.8454 47.2625C92.5374 47.5798 92.3834 48.0418 92.3834 48.6485V52.9325H90.4234V48.6485C90.4234 48.0418 90.2694 47.5798 89.9614 47.2625C89.6534 46.9358 89.2334 46.7725 88.7014 46.7725C88.1601 46.7725 87.7307 46.9358 87.4134 47.2625C87.1054 47.5798 86.9514 48.0418 86.9514 48.6485V52.9325H84.9914V45.1765H86.9514V46.1145C87.2034 45.7878 87.5254 45.5312 87.9174 45.3445C88.3187 45.1578 88.7574 45.0645 89.2334 45.0645C89.8401 45.0645 90.3814 45.1952 90.8574 45.4565C91.3334 45.7085 91.7021 46.0725 91.9634 46.5485C92.2154 46.1005 92.5794 45.7412 93.0554 45.4705C93.5407 45.1998 94.0634 45.0645 94.6234 45.0645Z" fill="#3D3B48"/>
</g>
<g clip-path="url(#clip1_37806_65)">
<rect x="40.5" y="81.5043" width="459" height="38.1055" rx="4.5" fill="white" stroke="#DEDEDE"/>
<path opacity="0.75" d="M79 96.2323V97.8143H74.926V100.32H78.048V101.874H74.926V106.004H72.966V96.2323H79ZM80.1358 102.098C80.1358 101.314 80.2898 100.619 80.5978 100.012C80.9152 99.4056 81.3398 98.9389 81.8718 98.6123C82.4132 98.2856 83.0152 98.1223 83.6778 98.1223C84.2565 98.1223 84.7605 98.2389 85.1898 98.4723C85.6285 98.7056 85.9785 98.9996 86.2398 99.3543V98.2483H88.2138V106.004H86.2398V104.87C85.9878 105.234 85.6378 105.538 85.1898 105.78C84.7512 106.014 84.2425 106.13 83.6638 106.13C83.0105 106.13 82.4132 105.962 81.8718 105.626C81.3398 105.29 80.9152 104.819 80.5978 104.212C80.2898 103.596 80.1358 102.892 80.1358 102.098ZM86.2398 102.126C86.2398 101.65 86.1465 101.244 85.9598 100.908C85.7732 100.563 85.5212 100.302 85.2038 100.124C84.8865 99.9376 84.5458 99.8443 84.1818 99.8443C83.8178 99.8443 83.4818 99.9329 83.1738 100.11C82.8658 100.288 82.6138 100.549 82.4178 100.894C82.2312 101.23 82.1378 101.632 82.1378 102.098C82.1378 102.565 82.2312 102.976 82.4178 103.33C82.6138 103.676 82.8658 103.942 83.1738 104.128C83.4912 104.315 83.8272 104.408 84.1818 104.408C84.5458 104.408 84.8865 104.32 85.2038 104.142C85.5212 103.956 85.7732 103.694 85.9598 103.358C86.1465 103.013 86.2398 102.602 86.2398 102.126ZM100.01 98.1363C100.962 98.1363 101.727 98.4303 102.306 99.0183C102.894 99.5969 103.188 100.409 103.188 101.454V106.004H101.228V101.72C101.228 101.114 101.074 100.652 100.766 100.334C100.458 100.008 100.038 99.8443 99.5061 99.8443C98.9741 99.8443 98.5494 100.008 98.2321 100.334C97.9241 100.652 97.7701 101.114 97.7701 101.72V106.004H95.8101V101.72C95.8101 101.114 95.6561 100.652 95.3481 100.334C95.0401 100.008 94.6201 99.8443 94.0881 99.8443C93.5468 99.8443 93.1174 100.008 92.8001 100.334C92.4921 100.652 92.3381 101.114 92.3381 101.72V106.004H90.3781V98.2483H92.3381V99.1863C92.5901 98.8596 92.9121 98.6029 93.3041 98.4163C93.7054 98.2296 94.1441 98.1363 94.6201 98.1363C95.2268 98.1363 95.7681 98.2669 96.2441 98.5283C96.7201 98.7803 97.0888 99.1443 97.3501 99.6203C97.6021 99.1723 97.9661 98.8129 98.4421 98.5423C98.9274 98.2716 99.4501 98.1363 100.01 98.1363ZM106.292 97.3243C105.947 97.3243 105.657 97.2169 105.424 97.0023C105.2 96.7783 105.088 96.5029 105.088 96.1763C105.088 95.8496 105.2 95.5789 105.424 95.3643C105.657 95.1403 105.947 95.0283 106.292 95.0283C106.637 95.0283 106.922 95.1403 107.146 95.3643C107.379 95.5789 107.496 95.8496 107.496 96.1763C107.496 96.5029 107.379 96.7783 107.146 97.0023C106.922 97.2169 106.637 97.3243 106.292 97.3243ZM107.258 98.2483V106.004H105.298V98.2483H107.258ZM111.405 95.6443V106.004H109.445V95.6443H111.405ZM121.011 98.2483L116.209 109.672H114.123L115.803 105.808L112.695 98.2483H114.893L116.895 103.666L118.925 98.2483H121.011ZM121.814 102.098C121.814 101.314 121.968 100.619 122.276 100.012C122.593 99.4056 123.018 98.9389 123.55 98.6123C124.091 98.2856 124.693 98.1223 125.356 98.1223C125.934 98.1223 126.438 98.2389 126.868 98.4723C127.306 98.7056 127.656 98.9996 127.918 99.3543V98.2483H129.892V106.004H127.918V104.87C127.666 105.234 127.316 105.538 126.868 105.78C126.429 106.014 125.92 106.13 125.342 106.13C124.688 106.13 124.091 105.962 123.55 105.626C123.018 105.29 122.593 104.819 122.276 104.212C121.968 103.596 121.814 102.892 121.814 102.098ZM127.918 102.126C127.918 101.65 127.824 101.244 127.638 100.908C127.451 100.563 127.199 100.302 126.882 100.124C126.564 99.9376 126.224 99.8443 125.86 99.8443C125.496 99.8443 125.16 99.9329 124.852 100.11C124.544 100.288 124.292 100.549 124.096 100.894C123.909 101.23 123.816 101.632 123.816 102.098C123.816 102.565 123.909 102.976 124.096 103.33C124.292 103.676 124.544 103.942 124.852 104.128C125.169 104.315 125.505 104.408 125.86 104.408C126.224 104.408 126.564 104.32 126.882 104.142C127.199 103.956 127.451 103.694 127.638 103.358C127.824 103.013 127.918 102.602 127.918 102.126Z" fill="#3D3B48"/>
</g>
<g clip-path="url(#clip2_37806_65)">
<rect x="40.5" y="134.576" width="459" height="38.1055" rx="4.5" fill="white" stroke="#DEDEDE"/>
<path opacity="0.75" d="M74.926 150.886V153.336H78.216V154.89H74.926V157.48H78.636V159.076H72.966V149.29H78.636V150.886H74.926ZM90.2992 151.208C91.2512 151.208 92.0165 151.502 92.5952 152.09C93.1832 152.669 93.4772 153.481 93.4772 154.526V159.076H91.5172V154.792C91.5172 154.185 91.3632 153.723 91.0552 153.406C90.7472 153.079 90.3272 152.916 89.7952 152.916C89.2632 152.916 88.8385 153.079 88.5212 153.406C88.2132 153.723 88.0592 154.185 88.0592 154.792V159.076H86.0992V154.792C86.0992 154.185 85.9452 153.723 85.6372 153.406C85.3292 153.079 84.9092 152.916 84.3772 152.916C83.8358 152.916 83.4065 153.079 83.0892 153.406C82.7812 153.723 82.6272 154.185 82.6272 154.792V159.076H80.6672V151.32H82.6272V152.258C82.8792 151.931 83.2012 151.675 83.5932 151.488C83.9945 151.301 84.4332 151.208 84.9092 151.208C85.5158 151.208 86.0572 151.339 86.5332 151.6C87.0092 151.852 87.3778 152.216 87.6392 152.692C87.8912 152.244 88.2552 151.885 88.7312 151.614C89.2165 151.343 89.7392 151.208 90.2992 151.208ZM95.0831 155.17C95.0831 154.386 95.2371 153.691 95.5451 153.084C95.8624 152.477 96.2871 152.011 96.8191 151.684C97.3604 151.357 97.9624 151.194 98.6251 151.194C99.2038 151.194 99.7078 151.311 100.137 151.544C100.576 151.777 100.926 152.071 101.187 152.426V151.32H103.161V159.076H101.187V157.942C100.935 158.306 100.585 158.609 100.137 158.852C99.6984 159.085 99.1898 159.202 98.6111 159.202C97.9578 159.202 97.3604 159.034 96.8191 158.698C96.2871 158.362 95.8624 157.891 95.5451 157.284C95.2371 156.668 95.0831 155.963 95.0831 155.17ZM101.187 155.198C101.187 154.722 101.094 154.316 100.907 153.98C100.72 153.635 100.468 153.373 100.151 153.196C99.8338 153.009 99.4931 152.916 99.1291 152.916C98.7651 152.916 98.4291 153.005 98.1211 153.182C97.8131 153.359 97.5611 153.621 97.3651 153.966C97.1784 154.302 97.0851 154.703 97.0851 155.17C97.0851 155.637 97.1784 156.047 97.3651 156.402C97.5611 156.747 97.8131 157.013 98.1211 157.2C98.4384 157.387 98.7744 157.48 99.1291 157.48C99.4931 157.48 99.8338 157.391 100.151 157.214C100.468 157.027 100.72 156.766 100.907 156.43C101.094 156.085 101.187 155.674 101.187 155.198ZM106.319 150.396C105.974 150.396 105.685 150.289 105.451 150.074C105.227 149.85 105.115 149.575 105.115 149.248C105.115 148.921 105.227 148.651 105.451 148.436C105.685 148.212 105.974 148.1 106.319 148.1C106.665 148.1 106.949 148.212 107.173 148.436C107.407 148.651 107.523 148.921 107.523 149.248C107.523 149.575 107.407 149.85 107.173 150.074C106.949 150.289 106.665 150.396 106.319 150.396ZM107.285 151.32V159.076H105.325V151.32H107.285ZM111.432 148.716V159.076H109.472V148.716H111.432ZM123.196 157.214H119.304L118.66 159.076H116.602L120.116 149.29H122.398L125.912 159.076H123.84L123.196 157.214ZM122.664 155.646L121.25 151.558L119.836 155.646H122.664ZM126.972 155.17C126.972 154.386 127.126 153.691 127.434 153.084C127.751 152.477 128.18 152.011 128.722 151.684C129.263 151.357 129.865 151.194 130.528 151.194C131.032 151.194 131.512 151.306 131.97 151.53C132.427 151.745 132.791 152.034 133.062 152.398V148.716H135.05V159.076H133.062V157.928C132.819 158.311 132.478 158.619 132.04 158.852C131.601 159.085 131.092 159.202 130.514 159.202C129.86 159.202 129.263 159.034 128.722 158.698C128.18 158.362 127.751 157.891 127.434 157.284C127.126 156.668 126.972 155.963 126.972 155.17ZM133.076 155.198C133.076 154.722 132.982 154.316 132.796 153.98C132.609 153.635 132.357 153.373 132.04 153.196C131.722 153.009 131.382 152.916 131.018 152.916C130.654 152.916 130.318 153.005 130.01 153.182C129.702 153.359 129.45 153.621 129.254 153.966C129.067 154.302 128.974 154.703 128.974 155.17C128.974 155.637 129.067 156.047 129.254 156.402C129.45 156.747 129.702 157.013 130.01 157.2C130.327 157.387 130.663 157.48 131.018 157.48C131.382 157.48 131.722 157.391 132.04 157.214C132.357 157.027 132.609 156.766 132.796 156.43C132.982 156.085 133.076 155.674 133.076 155.198ZM136.71 155.17C136.71 154.386 136.864 153.691 137.172 153.084C137.489 152.477 137.919 152.011 138.46 151.684C139.001 151.357 139.603 151.194 140.266 151.194C140.77 151.194 141.251 151.306 141.708 151.53C142.165 151.745 142.529 152.034 142.8 152.398V148.716H144.788V159.076H142.8V157.928C142.557 158.311 142.217 158.619 141.778 158.852C141.339 159.085 140.831 159.202 140.252 159.202C139.599 159.202 139.001 159.034 138.46 158.698C137.919 158.362 137.489 157.891 137.172 157.284C136.864 156.668 136.71 155.963 136.71 155.17ZM142.814 155.198C142.814 154.722 142.721 154.316 142.534 153.98C142.347 153.635 142.095 153.373 141.778 153.196C141.461 153.009 141.12 152.916 140.756 152.916C140.392 152.916 140.056 153.005 139.748 153.182C139.44 153.359 139.188 153.621 138.992 153.966C138.805 154.302 138.712 154.703 138.712 155.17C138.712 155.637 138.805 156.047 138.992 156.402C139.188 156.747 139.44 157.013 139.748 157.2C140.065 157.387 140.401 157.48 140.756 157.48C141.12 157.48 141.461 157.391 141.778 157.214C142.095 157.027 142.347 156.766 142.534 156.43C142.721 156.085 142.814 155.674 142.814 155.198ZM148.912 152.524C149.164 152.113 149.491 151.791 149.892 151.558C150.303 151.325 150.77 151.208 151.292 151.208V153.266H150.774C150.158 153.266 149.692 153.411 149.374 153.7C149.066 153.989 148.912 154.493 148.912 155.212V159.076H146.952V151.32H148.912V152.524ZM160.072 155.03C160.072 155.31 160.054 155.562 160.016 155.786H154.346C154.393 156.346 154.589 156.785 154.934 157.102C155.28 157.419 155.704 157.578 156.208 157.578C156.936 157.578 157.454 157.265 157.762 156.64H159.876C159.652 157.387 159.223 158.003 158.588 158.488C157.954 158.964 157.174 159.202 156.25 159.202C155.504 159.202 154.832 159.039 154.234 158.712C153.646 158.376 153.184 157.905 152.848 157.298C152.522 156.691 152.358 155.991 152.358 155.198C152.358 154.395 152.522 153.691 152.848 153.084C153.175 152.477 153.632 152.011 154.22 151.684C154.808 151.357 155.485 151.194 156.25 151.194C156.988 151.194 157.646 151.353 158.224 151.67C158.812 151.987 159.265 152.44 159.582 153.028C159.909 153.607 160.072 154.274 160.072 155.03ZM158.042 154.47C158.033 153.966 157.851 153.565 157.496 153.266C157.142 152.958 156.708 152.804 156.194 152.804C155.709 152.804 155.298 152.953 154.962 153.252C154.636 153.541 154.435 153.947 154.36 154.47H158.042ZM164.721 159.202C164.086 159.202 163.517 159.09 163.013 158.866C162.509 158.633 162.108 158.32 161.809 157.928C161.52 157.536 161.361 157.102 161.333 156.626H163.307C163.344 156.925 163.489 157.172 163.741 157.368C164.002 157.564 164.324 157.662 164.707 157.662C165.08 157.662 165.37 157.587 165.575 157.438C165.79 157.289 165.897 157.097 165.897 156.864C165.897 156.612 165.766 156.425 165.505 156.304C165.253 156.173 164.847 156.033 164.287 155.884C163.708 155.744 163.232 155.599 162.859 155.45C162.495 155.301 162.178 155.072 161.907 154.764C161.646 154.456 161.515 154.041 161.515 153.518C161.515 153.089 161.636 152.697 161.879 152.342C162.131 151.987 162.486 151.707 162.943 151.502C163.41 151.297 163.956 151.194 164.581 151.194C165.505 151.194 166.242 151.427 166.793 151.894C167.344 152.351 167.647 152.972 167.703 153.756H165.827C165.799 153.448 165.668 153.205 165.435 153.028C165.211 152.841 164.908 152.748 164.525 152.748C164.17 152.748 163.895 152.813 163.699 152.944C163.512 153.075 163.419 153.257 163.419 153.49C163.419 153.751 163.55 153.952 163.811 154.092C164.072 154.223 164.478 154.358 165.029 154.498C165.589 154.638 166.051 154.783 166.415 154.932C166.779 155.081 167.092 155.315 167.353 155.632C167.624 155.94 167.764 156.351 167.773 156.864C167.773 157.312 167.647 157.713 167.395 158.068C167.152 158.423 166.798 158.703 166.331 158.908C165.874 159.104 165.337 159.202 164.721 159.202ZM172.6 159.202C171.965 159.202 171.396 159.09 170.892 158.866C170.388 158.633 169.987 158.32 169.688 157.928C169.399 157.536 169.24 157.102 169.212 156.626H171.186C171.223 156.925 171.368 157.172 171.62 157.368C171.881 157.564 172.203 157.662 172.586 157.662C172.959 157.662 173.249 157.587 173.454 157.438C173.669 157.289 173.776 157.097 173.776 156.864C173.776 156.612 173.645 156.425 173.384 156.304C173.132 156.173 172.726 156.033 172.166 155.884C171.587 155.744 171.111 155.599 170.738 155.45C170.374 155.301 170.057 155.072 169.786 154.764C169.525 154.456 169.394 154.041 169.394 153.518C169.394 153.089 169.515 152.697 169.758 152.342C170.01 151.987 170.365 151.707 170.822 151.502C171.289 151.297 171.835 151.194 172.46 151.194C173.384 151.194 174.121 151.427 174.672 151.894C175.223 152.351 175.526 152.972 175.582 153.756H173.706C173.678 153.448 173.547 153.205 173.314 153.028C173.09 152.841 172.787 152.748 172.404 152.748C172.049 152.748 171.774 152.813 171.578 152.944C171.391 153.075 171.298 153.257 171.298 153.49C171.298 153.751 171.429 153.952 171.69 154.092C171.951 154.223 172.357 154.358 172.908 154.498C173.468 154.638 173.93 154.783 174.294 154.932C174.658 155.081 174.971 155.315 175.232 155.632C175.503 155.94 175.643 156.351 175.652 156.864C175.652 157.312 175.526 157.713 175.274 158.068C175.031 158.423 174.677 158.703 174.21 158.908C173.753 159.104 173.216 159.202 172.6 159.202Z" fill="#3D3B48"/>
</g>
<g clip-path="url(#clip3_37806_65)">
<rect x="40.5" y="187.648" width="459" height="38.1055" rx="4.5" fill="white" stroke="#DEDEDE"/>
<path opacity="0.75" d="M79.616 202.376V203.958H77.012V212.148H75.052V203.958H72.448V202.376H79.616ZM88.5061 208.102C88.5061 208.382 88.4874 208.634 88.4501 208.858H82.7801C82.8267 209.418 83.0227 209.856 83.3681 210.174C83.7134 210.491 84.1381 210.65 84.6421 210.65C85.3701 210.65 85.8881 210.337 86.1961 209.712H88.3101C88.0861 210.458 87.6567 211.074 87.0221 211.56C86.3874 212.036 85.6081 212.274 84.6841 212.274C83.9374 212.274 83.2654 212.11 82.6681 211.784C82.0801 211.448 81.6181 210.976 81.2821 210.37C80.9554 209.763 80.7921 209.063 80.7921 208.27C80.7921 207.467 80.9554 206.762 81.2821 206.156C81.6087 205.549 82.0661 205.082 82.6541 204.756C83.2421 204.429 83.9187 204.266 84.6841 204.266C85.4214 204.266 86.0794 204.424 86.6581 204.742C87.2461 205.059 87.6987 205.512 88.0161 206.1C88.3427 206.678 88.5061 207.346 88.5061 208.102ZM86.4761 207.542C86.4667 207.038 86.2847 206.636 85.9301 206.338C85.5754 206.03 85.1414 205.876 84.6281 205.876C84.1427 205.876 83.7321 206.025 83.3961 206.324C83.0694 206.613 82.8687 207.019 82.7941 207.542H86.4761ZM92.1467 201.788V212.148H90.1867V201.788H92.1467ZM101.543 208.102C101.543 208.382 101.525 208.634 101.487 208.858H95.8172C95.8639 209.418 96.0599 209.856 96.4052 210.174C96.7505 210.491 97.1752 210.65 97.6792 210.65C98.4072 210.65 98.9252 210.337 99.2332 209.712H101.347C101.123 210.458 100.694 211.074 100.059 211.56C99.4245 212.036 98.6452 212.274 97.7212 212.274C96.9745 212.274 96.3025 212.11 95.7052 211.784C95.1172 211.448 94.6552 210.976 94.3192 210.37C93.9925 209.763 93.8292 209.063 93.8292 208.27C93.8292 207.467 93.9925 206.762 94.3192 206.156C94.6459 205.549 95.1032 205.082 95.6912 204.756C96.2792 204.429 96.9559 204.266 97.7212 204.266C98.4585 204.266 99.1165 204.424 99.6952 204.742C100.283 205.059 100.736 205.512 101.053 206.1C101.38 206.678 101.543 207.346 101.543 208.102ZM99.5132 207.542C99.5039 207.038 99.3219 206.636 98.9672 206.338C98.6125 206.03 98.1785 205.876 97.6652 205.876C97.1799 205.876 96.7692 206.025 96.4332 206.324C96.1065 206.613 95.9059 207.019 95.8312 207.542H99.5132ZM106.78 206.002H105.422V212.148H103.434V206.002H102.552V204.392H103.434V204C103.434 203.048 103.704 202.348 104.246 201.9C104.787 201.452 105.604 201.242 106.696 201.27V202.922C106.22 202.912 105.888 202.992 105.702 203.16C105.515 203.328 105.422 203.631 105.422 204.07V204.392H106.78V206.002ZM111.744 212.274C110.997 212.274 110.325 212.11 109.728 211.784C109.131 211.448 108.659 210.976 108.314 210.37C107.978 209.763 107.81 209.063 107.81 208.27C107.81 207.476 107.983 206.776 108.328 206.17C108.683 205.563 109.163 205.096 109.77 204.77C110.377 204.434 111.053 204.266 111.8 204.266C112.547 204.266 113.223 204.434 113.83 204.77C114.437 205.096 114.913 205.563 115.258 206.17C115.613 206.776 115.79 207.476 115.79 208.27C115.79 209.063 115.608 209.763 115.244 210.37C114.889 210.976 114.404 211.448 113.788 211.784C113.181 212.11 112.5 212.274 111.744 212.274ZM111.744 210.566C112.099 210.566 112.43 210.482 112.738 210.314C113.055 210.136 113.307 209.875 113.494 209.53C113.681 209.184 113.774 208.764 113.774 208.27C113.774 207.532 113.578 206.968 113.186 206.576C112.803 206.174 112.332 205.974 111.772 205.974C111.212 205.974 110.741 206.174 110.358 206.576C109.985 206.968 109.798 207.532 109.798 208.27C109.798 209.007 109.98 209.576 110.344 209.978C110.717 210.37 111.184 210.566 111.744 210.566ZM121.776 204.28C122.7 204.28 123.446 204.574 124.016 205.162C124.585 205.74 124.87 206.552 124.87 207.598V212.148H122.91V207.864C122.91 207.248 122.756 206.776 122.448 206.45C122.14 206.114 121.72 205.946 121.188 205.946C120.646 205.946 120.217 206.114 119.9 206.45C119.592 206.776 119.438 207.248 119.438 207.864V212.148H117.478V204.392H119.438V205.358C119.699 205.022 120.03 204.76 120.432 204.574C120.842 204.378 121.29 204.28 121.776 204.28Z" fill="#3D3B48"/>
</g>
<g filter="url(#filter0_i_37806_65)">
<rect x="40" y="240" width="460" height="39.1055" rx="5" fill="#38CC8B"/>
</g>
<path d="M240.14 253.53V260.88C240.14 261.9 239.845 262.695 239.255 263.265C238.665 263.825 237.875 264.105 236.885 264.105C235.885 264.105 235.075 263.815 234.455 263.235C233.845 262.655 233.54 261.845 233.54 260.805H235.64C235.65 261.255 235.755 261.605 235.955 261.855C236.165 262.105 236.465 262.23 236.855 262.23C237.235 262.23 237.525 262.11 237.725 261.87C237.925 261.63 238.025 261.3 238.025 260.88V253.53H240.14ZM247.28 264.135C246.48 264.135 245.76 263.96 245.12 263.61C244.48 263.25 243.975 262.745 243.605 262.095C243.245 261.445 243.065 260.695 243.065 259.845C243.065 258.995 243.25 258.245 243.62 257.595C244 256.945 244.515 256.445 245.165 256.095C245.815 255.735 246.54 255.555 247.34 255.555C248.14 255.555 248.865 255.735 249.515 256.095C250.165 256.445 250.675 256.945 251.045 257.595C251.425 258.245 251.615 258.995 251.615 259.845C251.615 260.695 251.42 261.445 251.03 262.095C250.65 262.745 250.13 263.25 249.47 263.61C248.82 263.96 248.09 264.135 247.28 264.135ZM247.28 262.305C247.66 262.305 248.015 262.215 248.345 262.035C248.685 261.845 248.955 261.565 249.155 261.195C249.355 260.825 249.455 260.375 249.455 259.845C249.455 259.055 249.245 258.45 248.825 258.03C248.415 257.6 247.91 257.385 247.31 257.385C246.71 257.385 246.205 257.6 245.795 258.03C245.395 258.45 245.195 259.055 245.195 259.845C245.195 260.635 245.39 261.245 245.78 261.675C246.18 262.095 246.68 262.305 247.28 262.305ZM258.76 255.57C259.75 255.57 260.55 255.885 261.16 256.515C261.77 257.135 262.075 258.005 262.075 259.125V264H259.975V259.41C259.975 258.75 259.81 258.245 259.48 257.895C259.15 257.535 258.7 257.355 258.13 257.355C257.55 257.355 257.09 257.535 256.75 257.895C256.42 258.245 256.255 258.75 256.255 259.41V264H254.155V255.69H256.255V256.725C256.535 256.365 256.89 256.085 257.32 255.885C257.76 255.675 258.24 255.57 258.76 255.57ZM264.532 259.815C264.532 258.975 264.697 258.23 265.027 257.58C265.367 256.93 265.822 256.43 266.392 256.08C266.972 255.73 267.617 255.555 268.327 255.555C268.947 255.555 269.487 255.68 269.947 255.93C270.417 256.18 270.792 256.495 271.072 256.875V255.69H273.187V264H271.072V262.785C270.802 263.175 270.427 263.5 269.947 263.76C269.477 264.01 268.932 264.135 268.312 264.135C267.612 264.135 266.972 263.955 266.392 263.595C265.822 263.235 265.367 262.73 265.027 262.08C264.697 261.42 264.532 260.665 264.532 259.815ZM271.072 259.845C271.072 259.335 270.972 258.9 270.772 258.54C270.572 258.17 270.302 257.89 269.962 257.7C269.622 257.5 269.257 257.4 268.867 257.4C268.477 257.4 268.117 257.495 267.787 257.685C267.457 257.875 267.187 258.155 266.977 258.525C266.777 258.885 266.677 259.315 266.677 259.815C266.677 260.315 266.777 260.755 266.977 261.135C267.187 261.505 267.457 261.79 267.787 261.99C268.127 262.19 268.487 262.29 268.867 262.29C269.257 262.29 269.622 262.195 269.962 262.005C270.302 261.805 270.572 261.525 270.772 261.165C270.972 260.795 271.072 260.355 271.072 259.845ZM278.683 257.415V261.435C278.683 261.715 278.748 261.92 278.878 262.05C279.018 262.17 279.248 262.23 279.568 262.23H280.543V264H279.223C277.453 264 276.568 263.14 276.568 261.42V257.415H275.578V255.69H276.568V253.635H278.683V255.69H280.543V257.415H278.683ZM284.119 254.7C283.749 254.7 283.439 254.585 283.189 254.355C282.949 254.115 282.829 253.82 282.829 253.47C282.829 253.12 282.949 252.83 283.189 252.6C283.439 252.36 283.749 252.24 284.119 252.24C284.489 252.24 284.794 252.36 285.034 252.6C285.284 252.83 285.409 253.12 285.409 253.47C285.409 253.82 285.284 254.115 285.034 254.355C284.794 254.585 284.489 254.7 284.119 254.7ZM285.154 255.69V264H283.054V255.69H285.154ZM291.408 264.135C290.728 264.135 290.118 264.015 289.578 263.775C289.038 263.525 288.608 263.19 288.288 262.77C287.978 262.35 287.808 261.885 287.778 261.375H289.893C289.933 261.695 290.088 261.96 290.358 262.17C290.638 262.38 290.983 262.485 291.393 262.485C291.793 262.485 292.103 262.405 292.323 262.245C292.553 262.085 292.668 261.88 292.668 261.63C292.668 261.36 292.528 261.16 292.248 261.03C291.978 260.89 291.543 260.74 290.943 260.58C290.323 260.43 289.813 260.275 289.413 260.115C289.023 259.955 288.683 259.71 288.393 259.38C288.113 259.05 287.973 258.605 287.973 258.045C287.973 257.585 288.103 257.165 288.363 256.785C288.633 256.405 289.013 256.105 289.503 255.885C290.003 255.665 290.588 255.555 291.258 255.555C292.248 255.555 293.038 255.805 293.628 256.305C294.218 256.795 294.543 257.46 294.603 258.3H292.593C292.563 257.97 292.423 257.71 292.173 257.52C291.933 257.32 291.608 257.22 291.198 257.22C290.818 257.22 290.523 257.29 290.313 257.43C290.113 257.57 290.013 257.765 290.013 258.015C290.013 258.295 290.153 258.51 290.433 258.66C290.713 258.8 291.148 258.945 291.738 259.095C292.338 259.245 292.833 259.4 293.223 259.56C293.613 259.72 293.948 259.97 294.228 260.31C294.518 260.64 294.668 261.08 294.678 261.63C294.678 262.11 294.543 262.54 294.273 262.92C294.013 263.3 293.633 263.6 293.133 263.82C292.643 264.03 292.068 264.135 291.408 264.135ZM302.082 255.57C302.712 255.57 303.272 255.71 303.762 255.99C304.252 256.26 304.632 256.665 304.902 257.205C305.182 257.735 305.322 258.375 305.322 259.125V264H303.222V259.41C303.222 258.75 303.057 258.245 302.727 257.895C302.397 257.535 301.947 257.355 301.377 257.355C300.797 257.355 300.337 257.535 299.997 257.895C299.667 258.245 299.502 258.75 299.502 259.41V264H297.402V252.9H299.502V256.725C299.772 256.365 300.132 256.085 300.582 255.885C301.032 255.675 301.532 255.57 302.082 255.57Z" fill="white"/>
<defs>
<filter id="filter0_i_37806_65" x="40" y="240" width="460" height="39.1055" filterUnits="userSpaceOnUse" color-interpolation-filters="sRGB">
<feFlood flood-opacity="0" result="BackgroundImageFix"/>
<feBlend mode="normal" in="SourceGraphic" in2="BackgroundImageFix" result="shape"/>
<feColorMatrix in="SourceAlpha" type="matrix" values="0 0 0 0 0 0 0 0 0 0 0 0 0 0 0 0 0 0 127 0" result="hardAlpha"/>
<feOffset dy="-4"/>
<feComposite in2="hardAlpha" operator="arithmetic" k2="-1" k3="1"/>
<feColorMatrix type="matrix" values="0 0 0 0 0 0 0 0 0 0 0 0 0 0 0 0 0 0 0.0908818 0"/>
<feBlend mode="normal" in2="shape" result="effect1_innerShadow_37806_65"/>
</filter>
<clipPath id="clip0_37806_65">
<rect width="460" height="39.1055" fill="white" transform="translate(40 27.9325)"/>
</clipPath>
<clipPath id="clip1_37806_65">
<rect width="460" height="39.1055" fill="white" transform="translate(40 81.0043)"/>
</clipPath>
<clipPath id="clip2_37806_65">
<rect width="460" height="39.1055" fill="white" transform="translate(40 134.076)"/>
</clipPath>
<clipPath id="clip3_37806_65">
<rect width="460" height="39.1055" fill="white" transform="translate(40 187.148)"/>
</clipPath>
</defs>
</svg>
